<svg xmlns="http://www.w3.org/2000/svg" xmlns:xlink="http://www.w3.org/1999/xlink" width="296" height="264" viewBox="0 0 296 264">
    <defs>
        <path id="a" d="M0 264h296V0H0z"/>
    </defs>
    <g fill="none" fill-rule="evenodd">
        <mask id="b" fill="#fff">
            <use xlink:href="#a"/>
        </mask>
        <g mask="url(#b)">
            <path stroke="#C8CCD4" stroke-linecap="round" stroke-linejoin="round" stroke-width="1.04" d="M33 247.122h20.69V225H33z"/>
            <path fill="#C8CCD4" d="M39.424 235.776a.6.6 0 1 0-.848.848l3 3a.6.6 0 0 0 .848 0l5.4-6a.6.6 0 0 0-.848-.848L42 237.4l-2.576-1.624z"/>
            <path stroke="#C8CCD4" stroke-linecap="round" stroke-linejoin="round" stroke-width="1.04" d="M62 247.122h20.69V225H62z"/>
            <path fill="#C8CCD4" d="M68.424 235.776a.6.6 0 1 0-.848.848l3 3a.6.6 0 0 0 .848 0l5.4-6a.6.6 0 0 0-.848-.848L71 237.4l-2.576-1.624z"/>
            <g>
                <path stroke="#C8CCD4" stroke-linecap="round" stroke-linejoin="round" stroke-width="1.04" d="M91 247.122h20.69V225H91z"/>
                <path fill="#C8CCD4" d="M97.424 235.776a.6.6 0 1 0-.848.848l3 3a.6.6 0 0 0 .848 0l5.4-6a.6.6 0 0 0-.848-.848L100 237.4l-2.576-1.624z"/>
            </g>
            <g>
                <path stroke="#C8CCD4" stroke-linecap="round" stroke-linejoin="round" stroke-width="1.04" d="M33 179.122h20.69V157H33zM91 179.122h20.69V157H91z"/>
            </g>
            <g stroke="#C8CCD4" stroke-linecap="round" stroke-linejoin="round" stroke-width="1.221">
                <path d="M130 216.044H33v-27.937h97z"/>
                <path d="M55.585 195.446a1.692 1.692 0 0 0-2.297-.426l-2.477 1.612-.04.025-1.453.947h-9.144c-.389 0-.755.151-1.03.426l-.446.446a.6.6 0 0 0 .285 1.008l4.992 1.197-2.67 1.856-2.505-.658c-1.453-.421-1.473.556-1.449.809a.764.764 0 0 0 .396.599l3.494 1.9a2.107 2.107 0 0 0 2.116-.059l11.745-7.246c.4-.246.681-.652.772-1.113a1.7 1.7 0 0 0-.29-1.323zM37.347 209.406h18.56M68 202.466l25.5.034M60.937 188.107v27.937"/>
                <g>
                    <path d="M105.714 195.446c.53-.733 1.54-.92 2.297-.426l2.477 1.612.04.025 1.453.947h9.144c.389 0 .755.151 1.03.426l.446.446a.6.6 0 0 1-.285 1.008l-4.992 1.197 2.67 1.856 2.505-.658c1.453-.421 1.473.556 1.449.809a.764.764 0 0 1-.396.599l-3.494 1.9a2.107 2.107 0 0 1-2.116-.059l-11.745-7.246a1.699 1.699 0 0 1-.772-1.113 1.7 1.7 0 0 1 .29-1.323zM123.952 209.406h-18.56M100.362 188.107v27.937"/>
                </g>
            </g>
            <g>
                <path stroke="#C8CCD4" stroke-linecap="round" stroke-linejoin="round" stroke-width="1.04" d="M62 179.122h20.69V157H62z"/>
                <path fill="#C8CCD4" d="M68.424 167.776a.6.6 0 1 0-.848.848l3 3a.6.6 0 0 0 .848 0l5.4-6a.6.6 0 0 0-.848-.848L71 169.4l-2.576-1.624z"/>
            </g>
        </g>
        <g mask="url(#b)">
            <path fill="#000CCB" d="M197.44 201.72s-7.167 5.202-11.972 17.092c-4.805 11.89-6.521 17.405 2.145 22.403 8.665 4.997 22.29-21.055 22.427-28.277.138-7.223-12.6-11.219-12.6-11.219"/>
            <path fill="#000CCB" d="M196.945 250.976c4.158-4.72 7.75-8.443 8.667-12.999 2.391-11.88-16.88-31.69-7.023-37.064 10.733-5.851 22.11-8.03 32.845 1.8 12.537 11.479 5.157 40.33 10.162 49.089-8.91 1.614-30.985 4.74-44.65-.826"/>
            <path fill="#03052F" d="M216.35 174.623l-.057.044c2.227 2.551 3.213 6.73 1.768 10.68-2.385 6.52-5.973 5.788-8.504 5.788-6.748 0-8.551-5.358-8.474-12.045.079-6.687 6.619-5.755 6.619-5.755a7.717 7.717 0 0 1 1.904-.854c-.165-.939-.65-4.99 3.013-6.335 3.537-1.299 6.164 6.426 3.73 8.477z"/>
            <path fill="#FFAEFF" d="M212.916 181.066l1.04 2.09c.05-.524.303-.95 1.08-.7 1.589.513 1.984 4.08.499 4.874.038.401.04.803.007 1.2l3.117 8.215c.574 1.534-2.306 6.694-5.782 5.522-.538-.182-.937-2.986-1.197-8.412-2.679 1.065-5.735.128-7.258-3.248a7.011 7.011 0 0 1-.502-1.623c-1.265-.819-1.853-3.538-.744-4.473.435-.366.758-.333.996-.121.225-.992.49-1.853.623-2.484.86-4.097 5.558-5.161 8.12-.84z"/>
            <path fill="#FFF" d="M210.794 188.111s-1.641.677-4.092.738c0 0 .85 1.641 1.883 2.046 1.032.405 1.918-.818 2.21-2.784"/>
            <path fill="#7B00FF" d="M207.645 193.26c-1.005-.41-2.284-1.14-2.548-1.449a.84.84 0 0 0 .102.181c1.529 2.039 4.235 3.296 7.094 2.039 2.043-.899 2.838-2.582 3.058-4.587-1.019 5.097-6.57 4.28-7.706 3.816z"/>
            <path fill="#03052F" d="M203.381 181.202s4.595 2.698 6.892 3.03l-.598-1.849s4.38 2.106 5.487 1.85c1.108-.257 1.412-5.886-1.875-7.137-3.286-1.251-11.46-.94-9.906 4.106"/>
            <g>
                <path fill="#E2E2E2" d="M189.838 237.98c13.601 6.414 28.827 8.499 43.603 5.756 13.526-2.51 28.977-4.259 35.193-.798 12.07 6.72 11.095 26.883 0 35.672-11.096 8.788-67.374 9.564-86.595 5.17-19.222-4.395-54.228-26.625-37.755-47.304 9.56-12.001 30.044-5.807 45.554 1.505"/>
                <path fill="#C9C9C9" d="M185.406 265.002c-7.273-.099-18.058-7.529-24.732-12.068-6.674-4.538-8.833-2.519-16.684-6.915-1.656-.927-2.678-1.95-3.268-2.985-5.711 18.603 24.118 36.814 41.317 40.746 2.686.614 6.098 1.127 10.009 1.531 2.221-3.64 3.877-8.503 7.062-13.853 6.834-11.481 29.281-18.524 29.281-18.524-10.206-.831-28.46 12.265-42.985 12.068"/>
            </g>
            <g>
                <path fill="#03052F" d="M207.369 217.254h-43.8c-.68 0-1.231.554-1.231 1.237l7.066 29.942c0 2.486 2.007 4.502 4.482 4.502h41.78L208.6 218.49c0-.683-.55-1.237-1.231-1.237"/>
                <path fill="#03052F" d="M169.404 247.492v.94c0 2.487 2.007 4.502 4.482 4.502H233.4a3.835 3.835 0 0 0 3.826-3.842v-1.6h-67.821z"/>
                <path fill="#FFE73C" d="M186.724 235.551c.302 1.52 1.567 2.55 2.826 2.297 1.258-.252 2.033-1.69 1.73-3.21-.302-1.521-1.567-2.55-2.825-2.298-1.259.253-2.034 1.69-1.731 3.211"/>
            </g>
            <g>
                <path fill="#000CCB" d="M222.895 199.323c2.258-4.495 30.332 9.565 39.453 27.24 9.122 17.677-.08 24.027-38.363 22.472l-2.425-5.815 25.606-10.573s-9.189-8.358-12.698-11.457c-9.952-8.788-13.235-18.556-11.573-21.867"/>
                <path fill="#FFAEFF" d="M224.346 245.36s-2.014-2.711-3.538-2.737c-1.525-.026-4.807 1.412-4.273 1.717.533.304 3.559-.445 3.559-.445s-3.086 1.69-3.569 2.601c-.482.912.99 1.854 1.872 1.925.882.07 5.045 1.205 6.442.512 1.397-.693-.493-3.574-.493-3.574"/>
            </g>
        </g>
    </g>
</svg>
