<svg xmlns="http://www.w3.org/2000/svg" xmlns:xlink="http://www.w3.org/1999/xlink" width="214" height="200" viewBox="0 0 214 200">
    <defs>
        <path id="a" d="M0-126h214V74H0z"/>
    </defs>
    <g fill="none" fill-rule="evenodd" transform="translate(0 126)">
        <mask id="b" fill="#fff">
            <use xlink:href="#a"/>
        </mask>
        <g mask="url(#b)">
            <path d="M94.668 7.533a1 1 0 0 0 0 1.997 1 1 0 0 0 0-1.997M153.924 25.481h18.12v-3.48h-18.12z"/>
            <path stroke="#C8CCD4" stroke-linecap="round" stroke-linejoin="round" stroke-width=".94" d="M176.68 5.267H89.873c-.768 0-1.392.625-1.392 1.393v4.983c0 .084.068.153.153.153h89.285a.153.153 0 0 0 .154-.153V6.66c0-.768-.625-1.393-1.393-1.393z"/>
            <path stroke="#C8CCD4" stroke-linecap="round" stroke-linejoin="round" stroke-width=".94" d="M173.892 7.45H98.539a1.083 1.083 0 0 0 0 2.164h75.353c.597 0 1.082-.486 1.082-1.082 0-.597-.485-1.082-1.082-1.082zM94.668 7.533a1 1 0 0 0 0 1.997 1 1 0 0 0 0-1.997zM91.17 7.533a1 1 0 0 0 0 1.997 1 1 0 0 0 0-1.997zM94.51 20.318h37.926v-3.48H94.51zM134.118 20.318h37.925v-3.48h-37.925zM94.51 25.481h17.588v-3.48H94.51z"/>
            <g stroke="#C8CCD4" stroke-linecap="round" stroke-linejoin="round" stroke-width=".94">
                <path d="M94.999 55.736h19.737V38.163H94.999zM94.999 44.303h19.737"/>
            </g>
            <g stroke="#C8CCD4" stroke-linecap="round" stroke-linejoin="round" stroke-width=".94">
                <path d="M151.39 55.736h19.738V38.163H151.39zM151.39 44.303h19.738"/>
            </g>
            <path stroke="#C8CCD4" stroke-linecap="round" stroke-linejoin="round" stroke-width=".94" d="M114.316 25.481h18.12v-3.48h-18.12zM134.117 25.481h17.588v-3.48h-17.588zM153.924 25.481h18.12v-3.48h-18.12zM88.48 30.523h89.593M88.48 11.796l-.06 48.453"/>
            <path stroke="#C8CCD4" stroke-linecap="round" stroke-linejoin="round" stroke-width=".94" d="M88.42 60.25l89.653-.195V11.796"/>
            <g>
                <path stroke="#C8CCD4" stroke-linecap="round" stroke-linejoin="round" stroke-width=".94" d="M142.441 55.981h-17.855a.451.451 0 0 1-.452-.451V37.674c0-.25.202-.451.452-.451h17.855c.25 0 .452.202.452.451V55.53c0 .25-.202.451-.452.451z"/>
                <path fill="#C8CCD4" d="M132.94 50.149a4.271 4.271 0 0 1-1.133-.42c-.387-.208-.544-.716-.35-1.134.193-.418.663-.588 1.05-.379.407.22.855.334 1.309.334h.299c.216 0 .392-.19.392-.423 0-.233-.176-.423-.392-.423h-.783c-1.082 0-1.958-.947-1.958-2.115 0-1.023.672-1.876 1.566-2.072v-.042c0-.467.35-.846.783-.846.433 0 .784.379.784.846v.093c.392.084.773.225 1.133.419.387.209.544.717.35 1.135-.193.418-.664.587-1.05.378a2.75 2.75 0 0 0-1.31-.333h-.298c-.217 0-.392.189-.392.422 0 .234.175.423.392.423h.783c1.081 0 1.958.947 1.958 2.115 0 1.023-.673 1.877-1.566 2.072v.043c0 .467-.351.846-.784.846-.432 0-.783-.379-.783-.846v-.093z"/>
            </g>
        </g>
        <g mask="url(#b)">
            <path fill="#03052F" d="M42.783 70.676c11.011 2.043 22.263 1.341 26.62.941.273 1.033.58 2.115.935 3.26 8.62 27.842 10.309 78.437 10.309 78.437s-2.74.111-4.79 0c0 0-13.149-41.391-16.512-52.027-1.605-5.074-1.954-6.552-3.464-12.235l-5.622 64.006s-2.866.092-6.203 0c0 0-8.397-59.992-4.697-71.834 1.042-3.333 2.075-7.281 3.424-10.548"/>
            <path fill="#FFAEFF" d="M72.209 30.166c1.987.84 6.51 2.01 8.648 8.848 2.28 7.583 4.95 15.094 7.5 14.893 2.14-.169 13.052-13.82 13.052-13.82l2.67.057s-.048 11.414-5.658 24.97c-1.713 4.142-9.122 6.813-13.721 5.25-16.461-5.598-16.712-19.61-16.712-19.61s-2.57-18.274 4.22-20.588"/>
            <path fill="#000CCB" d="M74.501 46.917c-.227 2.714-.577 8.334-.717 12.879-4.33-4.567-5.204-9.377-5.204-9.377l-.123-.41c1.336-7.601 3.084-15.455 3.084-15.455s3.467 6.324 2.96 12.363"/>
            <path fill="#0D1BFF" d="M34.064 35.425c-1.039 1.085-.81 3.345.154 5.202 2.735 5.279 3.964 11.193 3.44 17.106-.425 4.776-.927 11.677-.271 18.197.375 3.731 1.136 5.436 1.639 7.229 4.513 2.82 28.404 5.441 37.178-.046.006-.911.01-2.054.012-3.346.012-5.602.002-14.02-.006-18.723a41.195 41.195 0 0 1 .546-6.758c1.012-6.163-1.077-21.128-2.043-23.143-11.304-5.647-29.908-6.934-40.65 4.282z"/>
            <path fill="#FFAEFF" d="M40.001 31.073s-22.166 10.761-25.169 23.48C12.64 63.84 20.818 72.207 30.048 72.78c9.229.574 27.563-2.047 30.573-15.05l-2.508-.97s-26.198 5.166-27.7-2.05c-.327-1.573 8.466-4.542 9.2-5.494 5.165-6.71 1.806-17.389.388-18.142"/>
            <path fill="#200C45" d="M50.488 26.613c.585-1.129 3.013-.822 3.013-.822-.488 2.463 3.108 4.235 3.637 4.424-1.3-.215-2.49.481-2.508 1.482 0 0-4.855-3.71-4.142-5.084zm11.314.581c.422 1.029-.306 3.762-.277 3.842-.369-.912-1.552-.902-2.255-.849 1.034-.437.84-1.26.427-2.16-.118-.26-.409-.844-.87-1.75l.435.008c1.239-.096 2.086.207 2.54.91z"/>
            <g>
                <path fill="#0D1BFF" d="M60.93 17.51s1.508-1.795.543-3.985c-.966-2.19-4.629-2.154-5.991-1.555-2.099.924-3.874 1.117-3.874 1.117s.273 1.862 1.554 2.235c0 0-.021 6.058 1.615 7.047l6.153-4.859z"/>
                <path fill="#FFAEFF" d="M56.682 17.27c1.205-2.441 3.827-2.083 4.487.08.29.95.728 2.748.605 4.663-.094 1.476-.75 2.52-1.901 2.585-.576.033-1.032.045-1.445.021l1.27 2.85c.442 1.087.574 2.09.105 2.48-1.604 1.326-7.071-1.573-7.063-2.622l2.19-6.766c-.577-.792-.719-2.06-.033-2.567.548-.406 1.014.083 1.267.555z"/>
                <path fill="#FFF" d="M58.966 20.835s.925-.091 2.263-.164c0 0-.018.788-.562 1.03-.544.243-1.453.09-1.701-.866"/>
                <path fill="#D075D0" d="M60.172 23.57c-1.226-.367-2.29 1.673-4.384-.482-.391-.4-.558-1.311-.639-1.85l-.032.092c-.4 1.448.297 2.992 1.578 3.48 1.024.388 1.698.437 3.04.351.683-.044 1.185-.49 1.494-1.201-.223.023-.683-.279-1.057-.39"/>
            </g>
            <g>
                <path fill="#200C45" d="M78.926 39.777a.386.386 0 0 1 .405.467l-.086.384-2.948 14.517a.39.39 0 0 1-.36.3l-23.174 1.304a.395.395 0 0 1-.247-.07l-9.068.504c-.58.032-1.077-.4-1.11-.963-.034-.564.41-1.048.99-1.08l9.407-.525 3.093-13.67c.04-.166.184.147.36.137l22.738-1.305z"/>
                <path fill="#FFE73C" d="M69.228 48.333c-.32 1.045-1.314 1.666-2.22 1.386-.907-.28-1.384-1.353-1.064-2.398.32-1.044 1.314-1.664 2.221-1.384.907.279 1.383 1.351 1.063 2.396"/>
            </g>
            <g fill="#FFAEFF">
                <path d="M60.564 54.764c.312-.17.619-.244.887-.149.782.277.575 2.071-.442 3.227-.705.804-2.565-.93-2.565-.93 0-.163 1.092-1.59 2.12-2.148zM102.728 37.085c.226-.274.483-.458.767-.47.829-.037 1.309 1.704.8 3.157-.354 1.01-2.728.098-2.728.098-.061-.15.417-1.882 1.16-2.785z"/>
            </g>
        </g>
    </g>
</svg>
